<svg width="395" height="145" viewBox="0 0 395 145" fill="none" xmlns="http://www.w3.org/2000/svg">
<path d="M159.546 53.1197C151.168 53.1197 144.059 50.3193 138.219 44.7184L144.538 33.0139C146.979 38.9499 149.469 43.1386 152.006 45.58C154.543 48.0215 157.439 49.2422 160.694 49.2422C163.184 49.2422 165.099 48.6917 166.439 47.5906C167.779 46.4417 168.45 44.862 168.45 42.8514C168.45 41.0802 167.731 39.4286 166.295 37.8967C164.907 36.3649 163.16 35.0723 161.053 34.0192C158.947 32.966 156.649 31.7932 154.16 30.5006C151.671 29.1602 149.373 27.8677 147.267 26.6231C145.16 25.3306 143.389 23.6551 141.953 21.5966C140.565 19.5382 139.87 17.2882 139.87 14.8468C139.87 10.8735 141.426 7.57038 144.538 4.93747C147.697 2.30455 151.743 0.988098 156.673 0.988098C163.519 0.988098 169.407 2.85507 174.338 6.58902L170.46 18.0781C167.444 12.6686 164.883 9.05438 162.777 7.23528C160.67 5.36831 158.205 4.43482 155.381 4.43482C152.891 4.43482 150.977 5.00927 149.636 6.15818C148.344 7.30709 147.697 8.81503 147.697 10.682C147.697 12.7405 148.655 14.6074 150.57 16.2829C152.532 17.9105 154.878 19.3706 157.607 20.6631C160.383 21.9556 163.136 23.32 165.864 24.7561C168.641 26.1922 170.987 28.0831 172.902 30.4288C174.864 32.7745 175.846 35.4792 175.846 38.543C175.846 43.1865 174.242 46.7768 171.035 49.314C167.827 51.8512 163.998 53.1197 159.546 53.1197Z" fill="#121061"/>
<path d="M220.9 52.2581L226.07 47.7342V30.2852C226.07 27.5087 225.496 25.6417 224.347 24.6843C223.246 23.679 221.666 23.1764 219.608 23.1764C217.071 23.1764 214.701 23.5833 212.499 24.3971C212.643 25.2588 212.714 26.2162 212.714 27.2693V47.7342L217.884 52.2581H199.358L204.528 47.7342V30.2852C204.528 27.6044 204.002 25.7614 202.949 24.7561C201.896 23.7029 200.268 23.1764 198.066 23.1764C195.577 23.1764 193.279 23.5593 191.172 24.3253V47.7342L196.342 52.2581H177.816L182.986 47.7342V25.4742L178.032 22.9609L191.172 16.9292V22.5301C196.007 19.0834 200.531 17.36 204.744 17.36C208.621 17.36 211.087 19.0594 212.14 22.4583C216.544 19.0594 221.14 17.36 225.927 17.36C228.703 17.36 230.786 18.1499 232.174 19.7296C233.562 21.2615 234.256 23.7508 234.256 27.1975V47.7342L239.426 52.2581H220.9Z" fill="#121061"/>
<path d="M261.925 53.6942V47.088C258.383 51.1092 254.361 53.1197 249.861 53.1197C247.133 53.1197 244.931 52.4495 243.255 51.1092C241.58 49.7688 240.742 47.9497 240.742 45.6518C240.742 39.0935 247.803 34.4021 261.925 31.5777V25.1151C261.925 21.5248 260.656 19.7296 258.119 19.7296C256.683 19.7296 255.462 20.328 254.457 21.5248C253.452 22.6737 252.71 23.9423 252.231 25.3306C251.8 26.7188 251.058 28.0113 250.005 29.2081C249 30.357 247.755 30.9315 246.271 30.9315C244.931 30.9315 243.878 30.5485 243.112 29.7826C242.346 28.9688 241.963 27.9156 241.963 26.6231C241.963 24.1817 243.303 22.0753 245.984 20.3041C248.665 18.485 252.662 17.5754 257.976 17.5754C262.523 17.5754 265.683 18.4132 267.454 20.0887C269.225 21.7163 270.111 24.5646 270.111 28.6337V45.2928L274.994 47.6624L261.925 53.6942ZM255.032 47.5188C257.186 47.5188 259.484 46.5853 261.925 44.7184V33.5165C257.042 35.0005 253.763 36.4606 252.087 37.8967C250.46 39.3329 249.646 40.9605 249.646 42.7796C249.646 44.12 250.125 45.2449 251.082 46.1545C252.04 47.064 253.356 47.5188 255.032 47.5188Z" fill="#121061"/>
<path d="M298.918 17.5754C300.642 17.5754 302.078 18.0781 303.227 19.0834C304.423 20.0408 305.022 21.3094 305.022 22.8891C305.022 24.3731 304.567 25.5939 303.658 26.5513C302.748 27.4608 301.575 27.9156 300.139 27.9156C298.942 27.9156 297.602 27.413 296.118 26.4077C294.634 25.4024 293.413 24.8997 292.456 24.8997C291.259 24.8997 290.325 25.3066 289.655 26.1204C288.985 26.9342 288.65 28.0353 288.65 29.4235V47.7342L293.82 52.2581H275.294L280.464 47.7342V25.546L275.509 22.9609L288.65 16.9292V24.3971C289.99 22.195 291.57 20.5195 293.389 19.3706C295.208 18.1738 297.051 17.5754 298.918 17.5754Z" fill="#121061"/>
<path d="M318.609 53.1197C315.928 53.1197 313.894 52.4256 312.505 51.0374C311.117 49.6012 310.423 47.1359 310.423 43.6413V21.6684H303.099L318.609 7.88154V18.2217H329.524V21.6684H318.609V44.2157C318.609 47.2795 320.021 48.8113 322.846 48.8113C325.479 48.8113 327.681 47.9975 329.452 46.3699C328.638 48.5241 327.25 50.1996 325.287 51.3964C323.324 52.5453 321.098 53.1197 318.609 53.1197Z" fill="#121061"/>
<path d="M138.578 108.55L144.394 103.38V63.3115L138.578 58.1414H160.335C168.426 58.1414 174.816 60.4153 179.508 64.963C184.247 69.4629 186.617 75.5904 186.617 83.3455C186.617 91.2921 184.247 97.4914 179.508 101.943C174.816 106.348 168.019 108.55 159.115 108.55H138.578ZM153.442 104.672H158.181C164.452 104.672 168.952 103.092 171.681 99.9329C174.457 96.7734 175.846 91.5794 175.846 84.3508C175.846 77.5531 174.433 72.1437 171.609 68.1225C168.785 64.0535 164.309 62.0189 158.181 62.0189H153.442V104.672Z" fill="#00CEB5"/>
<path d="M220.771 104.313C217.325 107.712 213.088 109.411 208.062 109.411C203.035 109.411 198.799 107.712 195.352 104.313C191.905 100.866 190.182 96.6058 190.182 91.5315C190.182 86.4571 191.905 82.2206 195.352 78.8217C198.799 75.375 203.035 73.6516 208.062 73.6516C213.088 73.6516 217.325 75.375 220.771 78.8217C224.218 82.2206 225.941 86.4571 225.941 91.5315C225.941 96.6058 224.218 100.866 220.771 104.313ZM201.743 102.949C203.179 105.247 205.285 106.395 208.062 106.395C210.838 106.395 212.921 105.247 214.309 102.949C215.745 100.651 216.463 97.4196 216.463 93.2548V89.8081C216.463 85.6433 215.745 82.412 214.309 80.1142C212.921 77.8164 210.838 76.6675 208.062 76.6675C205.285 76.6675 203.179 77.8164 201.743 80.1142C200.354 82.412 199.66 85.6433 199.66 89.8081V93.2548C199.66 97.4196 200.354 100.651 201.743 102.949Z" fill="#00CEB5"/>
<path d="M245.909 109.411C240.835 109.411 236.766 107.76 233.702 104.457C230.638 101.106 229.107 96.8452 229.107 91.6751C229.107 86.505 230.638 82.2206 233.702 78.8217C236.814 75.375 240.979 73.6516 246.197 73.6516C250.936 73.6516 255.388 75.5665 259.553 79.3962L253.521 90.7416L249.643 78.1754C248.447 77.2659 246.963 76.8111 245.191 76.8111C242.606 76.8111 240.5 77.8164 238.872 79.827C237.245 81.7897 236.431 84.3748 236.431 87.5821C236.431 92.1299 237.604 95.7681 239.949 98.4967C242.343 101.178 245.431 102.518 249.212 102.518C254.239 102.518 257.829 100.364 259.983 96.0553C259.696 100.124 258.284 103.38 255.747 105.821C253.21 108.215 249.931 109.411 245.909 109.411Z" fill="#00CEB5"/>
<path d="M275.691 109.411C273.01 109.411 270.975 108.717 269.587 107.329C268.199 105.893 267.505 103.427 267.505 99.9329V77.96H260.18L275.691 64.1731V74.5133H286.605V77.96H275.691V100.507C275.691 103.571 277.103 105.103 279.927 105.103C282.56 105.103 284.762 104.289 286.533 102.662C285.72 104.816 284.331 106.491 282.369 107.688C280.406 108.837 278.18 109.411 275.691 109.411Z" fill="#00CEB5"/>
<path d="M318.041 104.313C314.595 107.712 310.358 109.411 305.332 109.411C300.305 109.411 296.069 107.712 292.622 104.313C289.175 100.866 287.452 96.6058 287.452 91.5315C287.452 86.4571 289.175 82.2206 292.622 78.8217C296.069 75.375 300.305 73.6516 305.332 73.6516C310.358 73.6516 314.595 75.375 318.041 78.8217C321.488 82.2206 323.211 86.4571 323.211 91.5315C323.211 96.6058 321.488 100.866 318.041 104.313ZM299.013 102.949C300.449 105.247 302.555 106.395 305.332 106.395C308.108 106.395 310.191 105.247 311.579 102.949C313.015 100.651 313.733 97.4196 313.733 93.2548V89.8081C313.733 85.6433 313.015 82.412 311.579 80.1142C310.191 77.8164 308.108 76.6675 305.332 76.6675C302.555 76.6675 300.449 77.8164 299.013 80.1142C297.624 82.412 296.93 85.6433 296.93 89.8081V93.2548C296.93 97.4196 297.624 100.651 299.013 102.949Z" fill="#00CEB5"/>
<path d="M348.852 73.867C350.575 73.867 352.012 74.3697 353.16 75.375C354.357 76.3324 354.956 77.601 354.956 79.1807C354.956 80.6647 354.501 81.8855 353.591 82.8429C352.682 83.7524 351.509 84.2072 350.073 84.2072C348.876 84.2072 347.536 83.7046 346.052 82.6993C344.568 81.694 343.347 81.1913 342.389 81.1913C341.193 81.1913 340.259 81.5982 339.589 82.412C338.919 83.2258 338.584 84.3269 338.584 85.7151V104.026L343.754 108.55H325.228L330.398 104.026V81.8376L325.443 79.2525L338.584 73.2208V80.6887C339.924 78.4866 341.504 76.8111 343.323 75.6622C345.142 74.4654 346.985 73.867 348.852 73.867Z" fill="#00CEB5"/>
<path d="M369.488 109.699C366.855 109.699 364.222 109.22 361.589 108.262C358.956 107.257 356.85 106.084 355.27 104.744L358.43 95.3372C362.307 102.614 366.329 106.252 370.493 106.252C371.977 106.252 373.15 105.893 374.012 105.175C374.921 104.409 375.376 103.404 375.376 102.159C375.376 101.01 374.874 100.029 373.868 99.2148C372.911 98.3531 371.068 97.3 368.339 96.0553C363.6 93.8532 360.369 91.8905 358.645 90.1672C356.922 88.3959 356.06 86.2178 356.06 83.6328C356.06 80.8084 357.137 78.4387 359.292 76.5239C361.446 74.609 364.438 73.6516 368.267 73.6516C372.624 73.6516 376.669 74.8484 380.403 77.242L378.392 87.2231C376.19 83.1062 374.275 80.3296 372.648 78.8935C371.02 77.4095 369.32 76.6675 367.549 76.6675C366.113 76.6675 364.916 77.0744 363.959 77.8882C363.049 78.6542 362.595 79.6116 362.595 80.7605C362.595 81.9573 363.121 83.0104 364.174 83.92C365.228 84.7817 367.214 85.8827 370.134 87.2231C374.586 89.2337 377.626 91.1006 379.254 92.824C380.929 94.5474 381.767 96.6776 381.767 99.2148C381.767 102.47 380.594 105.031 378.248 106.898C375.903 108.765 372.983 109.699 369.488 109.699Z" fill="#00CEB5"/>
<path d="M143.767 132.882H145.544V135.339H143.767V144.376H140.652V135.339H139.007V132.882H140.652V131.961C140.652 130.615 140.996 129.606 141.683 128.934C142.385 128.261 143.343 127.925 144.557 127.925L145.478 127.969V130.645C145.39 130.63 145.229 130.623 144.995 130.623C144.176 130.623 143.767 131.047 143.767 131.895V132.882Z" fill="#2E2D60"/>
<path d="M156.805 142.906C155.694 144.061 154.239 144.639 152.44 144.639C150.642 144.639 149.187 144.061 148.075 142.906C146.964 141.736 146.408 140.31 146.408 138.629C146.408 136.947 146.964 135.529 148.075 134.373C149.187 133.204 150.642 132.619 152.44 132.619C154.239 132.619 155.694 133.204 156.805 134.373C157.917 135.529 158.472 136.947 158.472 138.629C158.472 140.31 157.917 141.736 156.805 142.906ZM150.335 136.238C149.794 136.823 149.523 137.62 149.523 138.629C149.523 139.638 149.794 140.435 150.335 141.02C150.89 141.604 151.592 141.897 152.44 141.897C153.289 141.897 153.983 141.604 154.524 141.02C155.08 140.435 155.358 139.638 155.358 138.629C155.358 137.62 155.08 136.823 154.524 136.238C153.983 135.653 153.289 135.36 152.44 135.36C151.592 135.36 150.89 135.653 150.335 136.238Z" fill="#2E2D60"/>
<path d="M167.098 132.794V135.711C166.879 135.668 166.674 135.646 166.484 135.646C165.563 135.646 164.868 135.887 164.4 136.369C163.947 136.852 163.72 137.612 163.72 138.651V144.376H160.606V132.882H163.479V134.373C164.137 133.306 165.219 132.772 166.725 132.772L167.098 132.794Z" fill="#2E2D60"/>
<path d="M173.784 139.967L176.877 139.331C176.95 140.076 177.235 140.683 177.732 141.151C178.244 141.604 178.975 141.831 179.926 141.831C180.789 141.831 181.461 141.678 181.944 141.371C182.426 141.049 182.668 140.603 182.668 140.033C182.668 139.565 182.463 139.184 182.053 138.892C181.644 138.599 181.132 138.395 180.518 138.278C179.919 138.161 179.26 138 178.544 137.795C177.827 137.576 177.162 137.335 176.548 137.071C175.948 136.794 175.444 136.333 175.034 135.689C174.625 135.031 174.42 134.227 174.42 133.277C174.42 131.917 174.932 130.776 175.956 129.855C176.979 128.934 178.361 128.473 180.101 128.473C181.739 128.473 183.062 128.912 184.071 129.789C185.08 130.652 185.673 131.756 185.848 133.101L182.755 133.672C182.726 132.97 182.47 132.407 181.988 131.983C181.52 131.544 180.876 131.325 180.057 131.325C179.312 131.325 178.712 131.493 178.259 131.829C177.806 132.151 177.579 132.567 177.579 133.079C177.579 133.503 177.732 133.847 178.039 134.11C178.347 134.373 178.741 134.578 179.224 134.724C179.721 134.871 180.262 135.01 180.847 135.141C181.447 135.258 182.039 135.419 182.624 135.624C183.223 135.828 183.764 136.092 184.247 136.413C184.744 136.72 185.146 137.174 185.453 137.773C185.76 138.373 185.914 139.089 185.914 139.923C185.914 141.327 185.344 142.475 184.203 143.367C183.077 144.244 181.593 144.683 179.75 144.683C177.879 144.683 176.453 144.237 175.473 143.345C174.508 142.438 173.945 141.312 173.784 139.967Z" fill="#2E2D60"/>
<path d="M198.719 137.839V144.376H195.604V137.554C195.604 136.048 194.99 135.295 193.761 135.295C193.045 135.295 192.489 135.514 192.094 135.953C191.714 136.391 191.524 136.998 191.524 137.773V144.376H188.409V132.882H191.283V134.286C191.882 133.174 192.986 132.619 194.595 132.619C196.116 132.619 197.227 133.16 197.929 134.242C198.909 133.16 200.181 132.619 201.745 132.619C203.091 132.619 204.122 133.035 204.838 133.869C205.555 134.702 205.913 135.814 205.913 137.203V144.376H202.798V137.554C202.798 136.048 202.184 135.295 200.956 135.295C200.225 135.295 199.669 135.521 199.289 135.975C198.909 136.413 198.719 137.035 198.719 137.839Z" fill="#2E2D60"/>
<path d="M211.328 136.677L208.344 136.128C208.535 135.105 209.039 134.264 209.858 133.606C210.691 132.948 211.891 132.619 213.455 132.619C215.122 132.619 216.38 132.992 217.228 133.737C218.076 134.483 218.5 135.536 218.5 136.896V141.349C218.5 141.846 218.705 142.094 219.114 142.094L219.443 142.072V144.441C219.282 144.5 219.012 144.529 218.632 144.529C217.316 144.529 216.446 144.054 216.022 143.103C215.071 144.127 213.748 144.639 212.051 144.639C210.721 144.639 209.712 144.324 209.024 143.696C208.352 143.067 208.015 142.255 208.015 141.261C208.015 139.228 209.507 137.963 212.49 137.466L215.539 136.962V136.874C215.539 135.748 214.844 135.185 213.455 135.185C212.183 135.185 211.474 135.682 211.328 136.677ZM215.539 139.177L212.797 139.682C212.168 139.799 211.715 139.967 211.437 140.186C211.159 140.391 211.02 140.669 211.02 141.02C211.02 141.824 211.598 142.226 212.753 142.226C213.645 142.226 214.333 141.992 214.815 141.524C215.298 141.042 215.539 140.398 215.539 139.594V139.177Z" fill="#2E2D60"/>
<path d="M227.889 132.794V135.711C227.67 135.668 227.465 135.646 227.275 135.646C226.354 135.646 225.659 135.887 225.191 136.369C224.738 136.852 224.511 137.612 224.511 138.651V144.376H221.397V132.882H224.27V134.373C224.928 133.306 226.01 132.772 227.516 132.772L227.889 132.794Z" fill="#2E2D60"/>
<path d="M234.975 141.612V144.31C234.624 144.397 234.134 144.441 233.506 144.441C231.151 144.441 229.974 143.272 229.974 140.932V135.339H228.417V132.882H229.974V130.03H233.089V132.882H234.997V135.339H233.089V140.603C233.089 141.349 233.476 141.721 234.251 141.721L234.975 141.612Z" fill="#2E2D60"/>
<path d="M246.025 135.536H249.49C250.192 135.536 250.719 135.368 251.07 135.031C251.42 134.695 251.596 134.235 251.596 133.65C251.596 133.065 251.42 132.604 251.07 132.268C250.719 131.917 250.192 131.741 249.49 131.741H246.025V135.536ZM246.025 138.475V144.376H242.822V128.802H249.49C251.274 128.802 252.605 129.248 253.482 130.14C254.36 131.032 254.798 132.202 254.798 133.65C254.798 135.083 254.345 136.245 253.438 137.137C252.546 138.029 251.23 138.475 249.49 138.475H246.025Z" fill="#2E2D60"/>
<path d="M258.41 136.677L255.426 136.128C255.617 135.105 256.121 134.264 256.94 133.606C257.773 132.948 258.972 132.619 260.537 132.619C262.204 132.619 263.462 132.992 264.31 133.737C265.158 134.483 265.582 135.536 265.582 136.896V141.349C265.582 141.846 265.787 142.094 266.196 142.094L266.525 142.072V144.441C266.364 144.5 266.094 144.529 265.714 144.529C264.398 144.529 263.528 144.054 263.103 143.103C262.153 144.127 260.83 144.639 259.133 144.639C257.803 144.639 256.794 144.324 256.106 143.696C255.434 143.067 255.097 142.255 255.097 141.261C255.097 139.228 256.589 137.963 259.572 137.466L262.621 136.962V136.874C262.621 135.748 261.926 135.185 260.537 135.185C259.265 135.185 258.556 135.682 258.41 136.677ZM262.621 139.177L259.879 139.682C259.25 139.799 258.797 139.967 258.519 140.186C258.241 140.391 258.102 140.669 258.102 141.02C258.102 141.824 258.68 142.226 259.835 142.226C260.727 142.226 261.415 141.992 261.897 141.524C262.38 141.042 262.621 140.398 262.621 139.594V139.177Z" fill="#2E2D60"/>
<path d="M273.639 141.612V144.31C273.288 144.397 272.798 144.441 272.169 144.441C269.815 144.441 268.638 143.272 268.638 140.932V135.339H267.08V132.882H268.638V130.03H271.753V132.882H273.661V135.339H271.753V140.603C271.753 141.349 272.14 141.721 272.915 141.721L273.639 141.612Z" fill="#2E2D60"/>
<path d="M278.486 130.864C278.135 131.215 277.682 131.39 277.126 131.39C276.57 131.39 276.117 131.215 275.766 130.864C275.415 130.513 275.24 130.067 275.24 129.526C275.24 128.985 275.415 128.539 275.766 128.188C276.117 127.822 276.57 127.64 277.126 127.64C277.682 127.64 278.135 127.822 278.486 128.188C278.837 128.539 279.012 128.985 279.012 129.526C279.012 130.067 278.837 130.513 278.486 130.864ZM275.569 144.376V132.882H278.683V144.376H275.569Z" fill="#2E2D60"/>
<path d="M288.981 140.625L291.854 141.283C291.416 142.336 290.75 143.162 289.858 143.761C288.981 144.346 287.899 144.639 286.612 144.639C284.916 144.639 283.526 144.076 282.444 142.95C281.362 141.824 280.821 140.376 280.821 138.607C280.821 136.896 281.362 135.47 282.444 134.33C283.526 133.189 284.908 132.619 286.59 132.619C288.272 132.619 289.639 133.189 290.692 134.33C291.759 135.456 292.293 136.881 292.293 138.607L292.249 139.528H283.914C284.016 140.318 284.309 140.925 284.791 141.349C285.274 141.758 285.91 141.963 286.7 141.963C287.811 141.963 288.571 141.517 288.981 140.625ZM286.568 135.119C285.866 135.119 285.289 135.317 284.835 135.711C284.382 136.092 284.089 136.618 283.958 137.291H289.178C289.061 136.633 288.776 136.106 288.323 135.711C287.869 135.317 287.285 135.119 286.568 135.119Z" fill="#2E2D60"/>
<path d="M297.271 132.882V134.286C297.87 133.174 299.011 132.619 300.692 132.619C302.052 132.619 303.098 133.035 303.829 133.869C304.56 134.688 304.926 135.799 304.926 137.203V144.376H301.811V137.554C301.811 136.048 301.16 135.295 299.859 135.295C299.113 135.295 298.536 135.521 298.126 135.975C297.717 136.413 297.512 137.02 297.512 137.795V144.376H294.397V132.882H297.271Z" fill="#2E2D60"/>
<path d="M313.074 141.612V144.31C312.723 144.397 312.233 144.441 311.604 144.441C309.25 144.441 308.073 143.272 308.073 140.932V135.339H306.515V132.882H308.073V130.03H311.187V132.882H313.096V135.339H311.187V140.603C311.187 141.349 311.575 141.721 312.35 141.721L313.074 141.612Z" fill="#2E2D60"/>
<path d="M314.126 141.02L317.219 140.581C317.248 141.034 317.424 141.407 317.745 141.7C318.067 141.992 318.535 142.138 319.149 142.138C319.734 142.138 320.18 142.043 320.487 141.853C320.794 141.663 320.948 141.407 320.948 141.085C320.948 140.734 320.729 140.479 320.29 140.318C319.851 140.142 319.325 140.003 318.711 139.901C318.096 139.799 317.475 139.66 316.846 139.484C316.232 139.309 315.706 138.965 315.267 138.453C314.828 137.941 314.609 137.261 314.609 136.413C314.609 135.346 315.033 134.447 315.881 133.715C316.729 132.984 317.84 132.619 319.215 132.619C320.663 132.619 321.759 132.962 322.505 133.65C323.266 134.322 323.726 135.127 323.887 136.062L320.948 136.611C320.919 136.172 320.75 135.814 320.443 135.536C320.151 135.258 319.734 135.119 319.193 135.119C318.696 135.119 318.308 135.229 318.031 135.448C317.753 135.653 317.614 135.916 317.614 136.238C317.614 136.53 317.767 136.764 318.074 136.94C318.396 137.101 318.791 137.21 319.259 137.269C319.727 137.327 320.231 137.422 320.772 137.554C321.313 137.686 321.818 137.854 322.286 138.058C322.754 138.263 323.141 138.614 323.448 139.111C323.77 139.594 323.931 140.208 323.931 140.954C323.931 142.021 323.492 142.906 322.615 143.608C321.752 144.295 320.568 144.639 319.062 144.639C316.093 144.639 314.448 143.432 314.126 141.02Z" fill="#2E2D60"/>
<path d="M328.931 143.981C328.537 144.361 328.032 144.551 327.418 144.551C326.804 144.551 326.299 144.361 325.905 143.981C325.51 143.586 325.312 143.081 325.312 142.467C325.312 141.868 325.51 141.371 325.905 140.976C326.299 140.566 326.804 140.362 327.418 140.362C328.018 140.362 328.515 140.566 328.91 140.976C329.319 141.371 329.524 141.868 329.524 142.467C329.524 143.081 329.326 143.586 328.931 143.981Z" fill="#2E2D60"/>
<path fill-rule="evenodd" clip-rule="evenodd" d="M47.8701 103.376C72.0412 103.376 91.6358 83.781 91.6358 59.6099C91.6358 35.4388 72.0412 15.8442 47.8701 15.8442C23.699 15.8442 4.10443 35.4388 4.10443 59.6099C4.10443 83.781 23.699 103.376 47.8701 103.376ZM47.8701 107.155C74.1285 107.155 95.4151 85.8683 95.4151 59.6099C95.4151 33.3515 74.1285 12.0649 47.8701 12.0649C21.6117 12.0649 0.325134 33.3515 0.325134 59.6099C0.325134 85.8683 21.6117 107.155 47.8701 107.155Z" fill="url(#paint0_linear)"/>
<path fill-rule="evenodd" clip-rule="evenodd" d="M27.2818 70.9363C33.5377 94.2838 57.536 108.139 80.8835 101.883C104.231 95.6274 118.087 71.629 111.831 48.2815C105.575 24.934 81.5763 11.0786 58.2288 17.3345C34.8813 23.5905 21.0258 47.5888 27.2818 70.9363ZM23.6312 71.9145C30.4274 97.2781 56.4981 112.33 81.8617 105.534C107.225 98.7377 122.277 72.667 115.481 47.3034C108.685 21.9398 82.6142 6.88784 57.2506 13.684C31.887 20.4802 16.8351 46.5508 23.6312 71.9145Z" fill="url(#paint1_linear)"/>
<rect x="54.1027" y="44.7225" width="8.29489" height="29.7728" fill="#05C6FF"/>
<rect x="73.1366" y="55.4614" width="8.29489" height="29.7728" transform="rotate(90 73.1366 55.4614)" fill="#05C6FF"/>
<path d="M390.196 63.7563C391.02 63.7563 391.81 63.9633 392.567 64.3772C393.324 64.7869 393.917 65.3764 394.348 66.1456C394.783 66.9149 395 67.7197 395 68.56C395 69.3962 394.787 70.1947 394.36 70.9556C393.938 71.7123 393.347 72.3039 392.586 72.7303C391.829 73.1526 391.032 73.3637 390.196 73.3637C389.36 73.3637 388.562 73.1526 387.801 72.7303C387.044 72.3039 386.452 71.7123 386.026 70.9556C385.604 70.1947 385.393 69.3962 385.393 68.56C385.393 67.7197 385.608 66.9149 386.039 66.1456C386.473 65.3764 387.069 64.7869 387.826 64.3772C388.583 63.9633 389.373 63.7563 390.196 63.7563ZM390.203 64.697C389.542 64.697 388.909 64.8622 388.302 65.1924C387.696 65.5227 387.218 65.9972 386.866 66.616C386.519 67.2347 386.346 67.8827 386.346 68.56C386.346 69.2331 386.515 69.8749 386.854 70.4853C387.197 71.0956 387.673 71.5723 388.284 71.9151C388.894 72.2579 389.534 72.4293 390.203 72.4293C390.876 72.4293 391.515 72.2579 392.122 71.9151C392.732 71.5723 393.209 71.0956 393.551 70.4853C393.894 69.8749 394.066 69.2331 394.066 68.56C394.066 67.8827 393.89 67.2347 393.539 66.616C393.192 65.9972 392.713 65.5227 392.103 65.1924C391.497 64.8622 390.863 64.697 390.203 64.697ZM388.027 71.1312V66.0328H389.061C390.031 66.0328 390.575 66.0369 390.692 66.0453C391.035 66.0746 391.3 66.1436 391.488 66.2523C391.68 66.3568 391.839 66.5198 391.965 66.7414C392.094 66.9588 392.159 67.2013 392.159 67.4688C392.159 67.8368 392.038 68.1524 391.795 68.4158C391.557 68.675 391.221 68.836 390.786 68.8987C390.94 68.9572 391.06 69.022 391.143 69.0931C391.227 69.16 391.342 69.2896 391.488 69.4819C391.526 69.532 391.651 69.739 391.864 70.1027L392.466 71.1312H391.187L390.761 70.3034C390.472 69.7474 390.234 69.3983 390.046 69.2561C389.858 69.1098 389.619 69.0366 389.331 69.0366H389.061V71.1312H388.027ZM389.061 68.2339H389.481C390.079 68.2339 390.449 68.2109 390.591 68.1649C390.738 68.119 390.853 68.0395 390.936 67.9266C391.02 67.8096 391.062 67.6779 391.062 67.5316C391.062 67.3894 391.02 67.264 390.936 67.1553C390.857 67.0424 390.742 66.963 390.591 66.917C390.441 66.8668 390.071 66.8417 389.481 66.8417H389.061V68.2339Z" fill="#121061"/>
<defs>
<linearGradient id="paint0_linear" x1="26.8208" y1="14.136" x2="66.5118" y2="40.6433" gradientUnits="userSpaceOnUse">
<stop stop-color="#2E2D60"/>
<stop offset="0.671875" stop-color="#00CEB5"/>
<stop offset="1" stop-color="#04C6FF"/>
</linearGradient>
<linearGradient id="paint1_linear" x1="108.033" y1="27.5074" x2="92.7013" y2="72.7065" gradientUnits="userSpaceOnUse">
<stop stop-color="#2E2D60"/>
<stop offset="0.671875" stop-color="#00CEB5"/>
<stop offset="1" stop-color="#04C6FF"/>
</linearGradient>
</defs>
</svg>
