<svg width="281" height="103" viewBox="0 0 281 103" fill="none" xmlns="http://www.w3.org/2000/svg">
<path d="M113.555 37.8261C107.598 37.8261 102.542 35.8345 98.389 31.8514L102.883 23.5277C104.619 27.7491 106.389 30.728 108.194 32.4642C109.998 34.2004 112.058 35.0686 114.373 35.0686C116.143 35.0686 117.505 34.6771 118.458 33.894C119.411 33.077 119.888 31.9536 119.888 30.5237C119.888 29.2641 119.377 28.0896 118.356 27.0002C117.368 25.9108 116.126 24.9916 114.628 24.2426C113.13 23.4937 111.496 22.6596 109.726 21.7404C107.955 20.7872 106.321 19.868 104.823 18.9829C103.325 18.0637 102.066 16.8722 101.044 15.4083C100.057 13.9444 99.5635 12.3443 99.5635 10.6081C99.5635 7.78248 100.67 5.43346 102.883 3.56105C105.13 1.68865 108.006 0.752441 111.513 0.752441C116.381 0.752441 120.568 2.08015 124.075 4.73556L121.317 12.9061C119.173 9.05912 117.351 6.48882 115.853 5.19515C114.355 3.86745 112.602 3.20359 110.594 3.20359C108.823 3.20359 107.462 3.61212 106.508 4.42917C105.589 5.24622 105.13 6.3186 105.13 7.6463C105.13 9.11019 105.811 10.4379 107.172 11.6294C108.568 12.7869 110.236 13.8252 112.177 14.7444C114.151 15.6636 116.109 16.6339 118.049 17.6552C120.024 18.6765 121.692 20.0212 123.054 21.6894C124.449 23.3575 125.147 25.281 125.147 27.4598C125.147 30.762 124.007 33.3153 121.726 35.1196C119.445 36.9239 116.722 37.8261 113.555 37.8261Z" fill="white"/>
<path d="M157.188 37.2133L160.865 33.9962V21.5872C160.865 19.6127 160.456 18.285 159.639 17.6041C158.856 16.8892 157.733 16.5317 156.269 16.5317C154.465 16.5317 152.78 16.8211 151.214 17.3998C151.316 18.0126 151.367 18.6935 151.367 19.4425V33.9962L155.044 37.2133H141.869L145.545 33.9962V21.5872C145.545 19.6808 145.171 18.3701 144.422 17.6552C143.673 16.9062 142.515 16.5317 140.949 16.5317C139.179 16.5317 137.545 16.8041 136.047 17.3488V33.9962L139.724 37.2133H126.549L130.226 33.9962V18.1658L126.702 16.3785L136.047 12.089V16.0721C139.486 13.621 142.703 12.3954 145.698 12.3954C148.456 12.3954 150.209 13.604 150.958 16.0211C154.09 13.604 157.358 12.3954 160.763 12.3954C162.737 12.3954 164.218 12.9571 165.206 14.0806C166.193 15.17 166.686 16.9403 166.686 19.3914V33.9962L170.363 37.2133H157.188Z" fill="white"/>
<path d="M186.363 38.2346V33.5366C183.844 36.3963 180.984 37.8261 177.784 37.8261C175.844 37.8261 174.278 37.3495 173.086 36.3963C171.894 35.443 171.299 34.1494 171.299 32.5153C171.299 27.8513 176.32 24.515 186.363 22.5064V17.9105C186.363 15.3572 185.461 14.0806 183.657 14.0806C182.635 14.0806 181.767 14.5061 181.052 15.3572C180.337 16.1743 179.81 17.0764 179.469 18.0637C179.163 19.051 178.635 19.9701 177.886 20.8212C177.171 21.6383 176.286 22.0468 175.231 22.0468C174.278 22.0468 173.529 21.7745 172.984 21.2298C172.439 20.651 172.167 19.9021 172.167 18.9829C172.167 17.2466 173.12 15.7487 175.027 14.4891C176.933 13.1954 179.776 12.5486 183.554 12.5486C186.789 12.5486 189.036 13.1444 190.295 14.3359C191.555 15.4934 192.185 17.519 192.185 20.4127V32.2599L195.657 33.9451L186.363 38.2346ZM181.461 33.843C182.993 33.843 184.627 33.1791 186.363 31.8514V23.8852C182.891 24.9405 180.559 25.9789 179.367 27.0002C178.21 28.0215 177.631 29.179 177.631 30.4726C177.631 31.4259 177.971 32.2259 178.652 32.8727C179.333 33.5196 180.269 33.843 181.461 33.843Z" fill="white"/>
<path d="M212.671 12.5486C213.897 12.5486 214.918 12.9061 215.735 13.621C216.586 14.3019 217.012 15.204 217.012 16.3275C217.012 17.3828 216.688 18.2509 216.041 18.9318C215.395 19.5786 214.561 19.9021 213.539 19.9021C212.688 19.9021 211.735 19.5446 210.68 18.8297C209.624 18.1148 208.756 17.7573 208.075 17.7573C207.224 17.7573 206.56 18.0467 206.084 18.6254C205.607 19.2042 205.369 19.9872 205.369 20.9744V33.9962L209.045 37.2133H195.87L199.547 33.9962V18.2169L196.024 16.3785L205.369 12.089V17.3998C206.322 15.8338 207.445 14.6423 208.739 13.8252C210.033 12.9742 211.343 12.5486 212.671 12.5486Z" fill="white"/>
<path d="M226.674 37.8261C224.768 37.8261 223.321 37.3325 222.334 36.3452C221.346 35.3239 220.853 33.5706 220.853 31.0854V15.4593H215.644L226.674 5.65474V13.0082H234.436V15.4593H226.674V31.494C226.674 33.6728 227.679 34.7622 229.687 34.7622C231.56 34.7622 233.126 34.1834 234.385 33.0259C233.806 34.5579 232.819 35.7494 231.423 36.6005C230.028 37.4176 228.445 37.8261 226.674 37.8261Z" fill="white"/>
<path d="M98.6443 77.2454L102.781 73.5686V45.074L98.6443 41.3973H114.117C119.871 41.3973 124.415 43.0144 127.752 46.2485C131.122 49.4486 132.807 53.8062 132.807 59.3213C132.807 64.9726 131.122 69.3812 127.752 72.5473C124.415 75.6793 119.581 77.2454 113.249 77.2454H98.6443ZM109.215 74.4878H112.585C117.045 74.4878 120.245 73.3644 122.186 71.1175C124.16 68.8706 125.147 65.1768 125.147 60.0362C125.147 55.202 124.143 51.3551 122.134 48.4954C120.126 45.6017 116.943 44.1548 112.585 44.1548H109.215V74.4878Z" fill="white"/>
<path d="M157.096 74.2325C154.645 76.6496 151.632 77.8581 148.058 77.8581C144.483 77.8581 141.47 76.6496 139.019 74.2325C136.568 71.7813 135.343 68.7514 135.343 65.1428C135.343 61.5342 136.568 58.5213 139.019 56.1042C141.47 53.653 144.483 52.4275 148.058 52.4275C151.632 52.4275 154.645 53.653 157.096 56.1042C159.548 58.5213 160.773 61.5342 160.773 65.1428C160.773 68.7514 159.548 71.7813 157.096 74.2325ZM143.564 73.2622C144.585 74.8963 146.083 75.7134 148.058 75.7134C150.032 75.7134 151.513 74.8963 152.501 73.2622C153.522 71.6281 154.033 69.3302 154.033 66.3684V63.9172C154.033 60.9554 153.522 58.6575 152.501 57.0234C151.513 55.3893 150.032 54.5722 148.058 54.5722C146.083 54.5722 144.585 55.3893 143.564 57.0234C142.577 58.6575 142.083 60.9554 142.083 63.9172V66.3684C142.083 69.3302 142.577 71.6281 143.564 73.2622Z" fill="white"/>
<path d="M174.973 77.8581C171.365 77.8581 168.471 76.6836 166.292 74.3346C164.113 71.9516 163.024 68.9217 163.024 65.2449C163.024 61.5682 164.113 58.5213 166.292 56.1042C168.505 53.653 171.467 52.4275 175.178 52.4275C178.548 52.4275 181.714 53.7892 184.676 56.5127L180.386 64.5811L177.629 55.6446C176.778 54.9978 175.722 54.6743 174.463 54.6743C172.624 54.6743 171.127 55.3893 169.969 56.8191C168.812 58.2149 168.233 60.0533 168.233 62.3342C168.233 65.5683 169.067 68.1557 170.735 70.0962C172.437 72.0026 174.633 72.9558 177.322 72.9558C180.897 72.9558 183.45 71.4239 184.982 68.3599C184.778 71.2537 183.774 73.5686 181.969 75.3049C180.165 77.007 177.833 77.8581 174.973 77.8581Z" fill="white"/>
<path d="M196.153 77.8581C194.246 77.8581 192.799 77.3645 191.812 76.3772C190.825 75.3559 190.331 73.6027 190.331 71.1175V55.4914H185.122L196.153 45.6868V53.0402H203.915V55.4914H196.153V71.526C196.153 73.7048 197.157 74.7942 199.165 74.7942C201.038 74.7942 202.604 74.2155 203.863 73.058C203.285 74.5899 202.297 75.7815 200.902 76.6326C199.506 77.4496 197.923 77.8581 196.153 77.8581Z" fill="white"/>
<path d="M226.27 74.2325C223.819 76.6496 220.806 77.8581 217.232 77.8581C213.657 77.8581 210.644 76.6496 208.193 74.2325C205.742 71.7813 204.517 68.7514 204.517 65.1428C204.517 61.5342 205.742 58.5213 208.193 56.1042C210.644 53.653 213.657 52.4275 217.232 52.4275C220.806 52.4275 223.819 53.653 226.27 56.1042C228.722 58.5213 229.947 61.5342 229.947 65.1428C229.947 68.7514 228.722 71.7813 226.27 74.2325ZM212.738 73.2622C213.759 74.8963 215.257 75.7134 217.232 75.7134C219.206 75.7134 220.687 74.8963 221.675 73.2622C222.696 71.6281 223.207 69.3302 223.207 66.3684V63.9172C223.207 60.9554 222.696 58.6575 221.675 57.0234C220.687 55.3893 219.206 54.5722 217.232 54.5722C215.257 54.5722 213.759 55.3893 212.738 57.0234C211.751 58.6575 211.257 60.9554 211.257 63.9172V66.3684C211.257 69.3302 211.751 71.6281 212.738 73.2622Z" fill="white"/>
<path d="M248.182 52.5807C249.407 52.5807 250.429 52.9381 251.246 53.653C252.097 54.3339 252.522 55.2361 252.522 56.3595C252.522 57.4149 252.199 58.283 251.552 58.9639C250.905 59.6107 250.071 59.9341 249.05 59.9341C248.199 59.9341 247.245 59.5766 246.19 58.8617C245.135 58.1468 244.267 57.7893 243.586 57.7893C242.735 57.7893 242.071 58.0787 241.594 58.6575C241.118 59.2362 240.879 60.0192 240.879 61.0065V74.0282L244.556 77.2454H231.381L235.058 74.0282V58.2489L231.534 56.4106L240.879 52.1211V57.4319C241.832 55.8659 242.956 54.6743 244.25 53.8573C245.543 53.0062 246.854 52.5807 248.182 52.5807Z" fill="white"/>
<path d="M262.857 78.0624C260.985 78.0624 259.112 77.722 257.24 77.0411C255.367 76.3262 253.869 75.4921 252.746 74.5389L254.993 67.8493C257.75 73.0239 260.61 75.6113 263.572 75.6113C264.627 75.6113 265.461 75.3559 266.074 74.8453C266.721 74.3006 267.044 73.5857 267.044 72.7005C267.044 71.8835 266.687 71.1856 265.972 70.6068C265.291 69.994 263.98 69.2451 262.04 68.3599C258.67 66.7939 256.372 65.3981 255.146 64.1726C253.921 62.9129 253.308 61.3639 253.308 59.5256C253.308 57.517 254.074 55.8318 255.606 54.4701C257.138 53.1083 259.265 52.4275 261.989 52.4275C265.087 52.4275 267.964 53.2785 270.619 54.9807L269.189 62.0789C267.623 59.1511 266.261 57.1766 265.104 56.1552C263.946 55.0999 262.738 54.5722 261.478 54.5722C260.457 54.5722 259.606 54.8616 258.925 55.4403C258.278 55.985 257.955 56.6659 257.955 57.483C257.955 58.334 258.329 59.083 259.078 59.7298C259.827 60.3426 261.24 61.1256 263.317 62.0789C266.483 63.5087 268.644 64.8364 269.802 66.062C270.993 67.2876 271.589 68.8025 271.589 70.6068C271.589 72.9218 270.755 74.7431 269.087 76.0708C267.419 77.3986 265.342 78.0624 262.857 78.0624Z" fill="white"/>
<path d="M102.334 94.5493H103.598V96.2964H102.334V102.723H100.119V96.2964H98.9495V94.5493H100.119V93.8942C100.119 92.9375 100.364 92.2199 100.853 91.7416C101.352 91.2632 102.033 91.024 102.896 91.024L103.551 91.0552V92.9583C103.489 92.9479 103.374 92.9427 103.208 92.9427C102.626 92.9427 102.334 93.2442 102.334 93.8474V94.5493Z" fill="white"/>
<path d="M111.607 101.678C110.816 102.5 109.782 102.91 108.503 102.91C107.224 102.91 106.189 102.5 105.398 101.678C104.608 100.846 104.213 99.8321 104.213 98.6362C104.213 97.4403 104.608 96.4316 105.398 95.6101C106.189 94.7781 107.224 94.3622 108.503 94.3622C109.782 94.3622 110.816 94.7781 111.607 95.6101C112.397 96.4316 112.792 97.4403 112.792 98.6362C112.792 99.8321 112.397 100.846 111.607 101.678ZM107.005 96.936C106.62 97.3519 106.428 97.9187 106.428 98.6362C106.428 99.3538 106.62 99.9205 107.005 100.336C107.4 100.752 107.899 100.96 108.503 100.96C109.106 100.96 109.6 100.752 109.985 100.336C110.38 99.9205 110.577 99.3538 110.577 98.6362C110.577 97.9187 110.38 97.3519 109.985 96.936C109.6 96.52 109.106 96.312 108.503 96.312C107.899 96.312 107.4 96.52 107.005 96.936Z" fill="white"/>
<path d="M118.927 94.4869V96.5616C118.771 96.5304 118.625 96.5148 118.49 96.5148C117.835 96.5148 117.341 96.6864 117.008 97.0295C116.686 97.3727 116.524 97.9135 116.524 98.6518V102.723H114.309V94.5493H116.353V95.6101C116.821 94.8509 117.59 94.4713 118.661 94.4713L118.927 94.4869Z" fill="white"/>
<path d="M123.681 99.5877L125.881 99.1354C125.933 99.6657 126.136 100.097 126.489 100.43C126.853 100.752 127.373 100.914 128.049 100.914C128.663 100.914 129.141 100.804 129.484 100.586C129.827 100.357 129.999 100.04 129.999 99.6345C129.999 99.3018 129.853 99.0314 129.562 98.8234C129.271 98.6154 128.907 98.4698 128.47 98.3866C128.044 98.3034 127.576 98.1891 127.066 98.0435C126.557 97.8875 126.084 97.7159 125.647 97.5287C125.22 97.3311 124.862 97.0035 124.57 96.546C124.279 96.078 124.134 95.5061 124.134 94.8301C124.134 93.863 124.498 93.0519 125.226 92.3967C125.954 91.7416 126.936 91.414 128.174 91.414C129.338 91.414 130.28 91.726 130.997 92.3499C131.715 92.9635 132.136 93.7486 132.261 94.7053L130.061 95.1109C130.04 94.6117 129.858 94.2114 129.515 93.9098C129.183 93.5978 128.725 93.4418 128.143 93.4418C127.612 93.4418 127.186 93.5614 126.863 93.8006C126.541 94.0294 126.38 94.3258 126.38 94.6897C126.38 94.9913 126.489 95.2357 126.707 95.4229C126.926 95.6101 127.207 95.7556 127.55 95.8596C127.903 95.9636 128.288 96.0624 128.704 96.156C129.131 96.2392 129.552 96.3536 129.968 96.4992C130.394 96.6448 130.779 96.832 131.122 97.0607C131.476 97.2791 131.761 97.6015 131.98 98.0279C132.198 98.4542 132.307 98.9638 132.307 99.5565C132.307 100.555 131.902 101.371 131.091 102.006C130.29 102.63 129.234 102.941 127.924 102.941C126.593 102.941 125.579 102.624 124.882 101.99C124.196 101.345 123.796 100.544 123.681 99.5877Z" fill="white"/>
<path d="M141.413 98.0747V102.723H139.198V97.8719C139.198 96.8008 138.762 96.2652 137.888 96.2652C137.379 96.2652 136.983 96.4212 136.703 96.7332C136.432 97.0451 136.297 97.4767 136.297 98.0279V102.723H134.082V94.5493H136.125V95.5477C136.552 94.7573 137.337 94.3622 138.481 94.3622C139.562 94.3622 140.353 94.7469 140.852 95.5165C141.549 94.7469 142.453 94.3622 143.566 94.3622C144.523 94.3622 145.256 94.6585 145.766 95.2513C146.275 95.844 146.53 96.6344 146.53 97.6223V102.723H144.315V97.8719C144.315 96.8008 143.878 96.2652 143.005 96.2652C142.485 96.2652 142.089 96.4264 141.819 96.7488C141.549 97.0607 141.413 97.5027 141.413 98.0747Z" fill="white"/>
<path d="M150.38 97.2479L148.259 96.858C148.394 96.13 148.753 95.5321 149.335 95.0641C149.928 94.5961 150.781 94.3622 151.894 94.3622C153.079 94.3622 153.973 94.6273 154.577 95.1577C155.18 95.688 155.481 96.4368 155.481 97.4039V100.57C155.481 100.924 155.627 101.101 155.918 101.101L156.152 101.085V102.77C156.038 102.811 155.845 102.832 155.575 102.832C154.639 102.832 154.02 102.494 153.719 101.818C153.043 102.546 152.102 102.91 150.895 102.91C149.949 102.91 149.231 102.687 148.743 102.24C148.264 101.792 148.025 101.215 148.025 100.508C148.025 99.0626 149.086 98.1631 151.207 97.8095L153.375 97.4507V97.3883C153.375 96.5876 152.881 96.1872 151.894 96.1872C150.989 96.1872 150.484 96.5408 150.38 97.2479ZM153.375 99.0262L151.426 99.385C150.978 99.4682 150.656 99.5877 150.458 99.7437C150.261 99.8893 150.162 100.087 150.162 100.336C150.162 100.908 150.573 101.194 151.394 101.194C152.029 101.194 152.518 101.028 152.861 100.695C153.204 100.352 153.375 99.8945 153.375 99.3226V99.0262Z" fill="white"/>
<path d="M162.158 94.4869V96.5616C162.002 96.5304 161.857 96.5148 161.722 96.5148C161.066 96.5148 160.573 96.6864 160.24 97.0295C159.917 97.3727 159.756 97.9135 159.756 98.6518V102.723H157.541V94.5493H159.585V95.6101C160.053 94.8509 160.822 94.4713 161.893 94.4713L162.158 94.4869Z" fill="white"/>
<path d="M167.198 100.758V102.676C166.948 102.739 166.6 102.77 166.152 102.77C164.478 102.77 163.641 101.938 163.641 100.274V96.2964H162.534V94.5493H163.641V92.5215H165.856V94.5493H167.213V96.2964H165.856V100.04C165.856 100.57 166.132 100.836 166.683 100.836L167.198 100.758Z" fill="white"/>
<path d="M175.055 96.4368H177.52C178.019 96.4368 178.394 96.3172 178.643 96.078C178.893 95.8388 179.018 95.5113 179.018 95.0953C179.018 94.6793 178.893 94.3518 178.643 94.1126C178.394 93.863 178.019 93.7382 177.52 93.7382H175.055V96.4368ZM175.055 98.527V102.723H172.778V91.648H177.52C178.789 91.648 179.735 91.9651 180.359 92.5995C180.983 93.2338 181.295 94.0658 181.295 95.0953C181.295 96.1144 180.973 96.9411 180.328 97.5755C179.693 98.2099 178.758 98.527 177.52 98.527H175.055Z" fill="white"/>
<path d="M183.863 97.2479L181.742 96.858C181.877 96.13 182.236 95.5321 182.818 95.0641C183.411 94.5961 184.263 94.3622 185.376 94.3622C186.562 94.3622 187.456 94.6273 188.059 95.1577C188.662 95.688 188.964 96.4368 188.964 97.4039V100.57C188.964 100.924 189.109 101.101 189.401 101.101L189.635 101.085V102.77C189.52 102.811 189.328 102.832 189.057 102.832C188.121 102.832 187.503 102.494 187.201 101.818C186.525 102.546 185.584 102.91 184.378 102.91C183.431 102.91 182.714 102.687 182.225 102.24C181.747 101.792 181.508 101.215 181.508 100.508C181.508 99.0626 182.568 98.1631 184.69 97.8095L186.858 97.4507V97.3883C186.858 96.5876 186.364 96.1872 185.376 96.1872C184.471 96.1872 183.967 96.5408 183.863 97.2479ZM186.858 99.0262L184.908 99.385C184.461 99.4682 184.139 99.5877 183.941 99.7437C183.743 99.8893 183.645 100.087 183.645 100.336C183.645 100.908 184.055 101.194 184.877 101.194C185.511 101.194 186 101.028 186.343 100.695C186.686 100.352 186.858 99.8945 186.858 99.3226V99.0262Z" fill="white"/>
<path d="M194.693 100.758V102.676C194.444 102.739 194.095 102.77 193.648 102.77C191.974 102.77 191.137 101.938 191.137 100.274V96.2964H190.029V94.5493H191.137V92.5215H193.352V94.5493H194.709V96.2964H193.352V100.04C193.352 100.57 193.628 100.836 194.179 100.836L194.693 100.758Z" fill="white"/>
<path d="M198.141 93.1142C197.891 93.3638 197.569 93.4886 197.173 93.4886C196.778 93.4886 196.456 93.3638 196.206 93.1142C195.957 92.8647 195.832 92.5475 195.832 92.1627C195.832 91.778 195.957 91.4608 196.206 91.2112C196.456 90.9512 196.778 90.8212 197.173 90.8212C197.569 90.8212 197.891 90.9512 198.141 91.2112C198.39 91.4608 198.515 91.778 198.515 92.1627C198.515 92.5475 198.39 92.8647 198.141 93.1142ZM196.066 102.723V94.5493H198.281V102.723H196.066Z" fill="white"/>
<path d="M205.604 100.056L207.647 100.524C207.335 101.272 206.862 101.86 206.228 102.286C205.604 102.702 204.834 102.91 203.919 102.91C202.713 102.91 201.725 102.51 200.955 101.709C200.186 100.908 199.801 99.8789 199.801 98.6206C199.801 97.4039 200.186 96.39 200.955 95.5789C201.725 94.7677 202.708 94.3622 203.904 94.3622C205.1 94.3622 206.072 94.7677 206.821 95.5789C207.58 96.3796 207.959 97.3935 207.959 98.6206L207.928 99.2758H202.001C202.073 99.8373 202.281 100.269 202.625 100.57C202.968 100.862 203.42 101.007 203.982 101.007C204.772 101.007 205.313 100.69 205.604 100.056ZM203.888 96.1404C203.389 96.1404 202.978 96.2808 202.656 96.5616C202.333 96.832 202.125 97.2063 202.032 97.6847H205.744C205.661 97.2167 205.458 96.8424 205.136 96.5616C204.814 96.2808 204.398 96.1404 203.888 96.1404Z" fill="white"/>
<path d="M211.499 94.5493V95.5477C211.926 94.7573 212.737 94.3622 213.933 94.3622C214.9 94.3622 215.643 94.6585 216.163 95.2513C216.683 95.8336 216.943 96.624 216.943 97.6223V102.723H214.728V97.8719C214.728 96.8008 214.265 96.2652 213.34 96.2652C212.81 96.2652 212.399 96.4264 212.108 96.7488C211.816 97.0607 211.671 97.4923 211.671 98.0435V102.723H209.456V94.5493H211.499Z" fill="white"/>
<path d="M222.738 100.758V102.676C222.488 102.739 222.14 102.77 221.693 102.77C220.018 102.77 219.181 101.938 219.181 100.274V96.2964H218.074V94.5493H219.181V92.5215H221.396V94.5493H222.753V96.2964H221.396V100.04C221.396 100.57 221.672 100.836 222.223 100.836L222.738 100.758Z" fill="white"/>
<path d="M223.486 100.336L225.686 100.025C225.706 100.347 225.831 100.612 226.06 100.82C226.289 101.028 226.622 101.132 227.058 101.132C227.474 101.132 227.791 101.064 228.01 100.929C228.228 100.794 228.337 100.612 228.337 100.383C228.337 100.134 228.181 99.9517 227.869 99.8373C227.558 99.7125 227.183 99.6137 226.746 99.5409C226.31 99.4682 225.868 99.3694 225.42 99.2446C224.984 99.1198 224.609 98.8754 224.297 98.5114C223.985 98.1475 223.829 97.6639 223.829 97.0607C223.829 96.3016 224.131 95.662 224.734 95.1421C225.337 94.6221 226.128 94.3622 227.105 94.3622C228.135 94.3622 228.915 94.6065 229.445 95.0953C229.986 95.5737 230.313 96.1456 230.428 96.8112L228.337 97.2011C228.317 96.8892 228.197 96.6344 227.979 96.4368C227.771 96.2392 227.474 96.1404 227.09 96.1404C226.736 96.1404 226.46 96.2184 226.263 96.3744C226.065 96.52 225.966 96.7072 225.966 96.936C225.966 97.1439 226.076 97.3103 226.294 97.4351C226.523 97.5495 226.804 97.6275 227.136 97.6691C227.469 97.7107 227.828 97.7783 228.213 97.8719C228.597 97.9655 228.956 98.0851 229.289 98.2306C229.622 98.3762 229.897 98.6258 230.116 98.9794C230.344 99.3226 230.459 99.7593 230.459 100.29C230.459 101.049 230.147 101.678 229.523 102.177C228.909 102.666 228.067 102.91 226.996 102.91C224.885 102.91 223.715 102.052 223.486 100.336Z" fill="white"/>
<path d="M234.015 102.442C233.734 102.713 233.375 102.848 232.939 102.848C232.502 102.848 232.143 102.713 231.862 102.442C231.582 102.162 231.441 101.803 231.441 101.366C231.441 100.94 231.582 100.586 231.862 100.305C232.143 100.014 232.502 99.8685 232.939 99.8685C233.365 99.8685 233.719 100.014 233.999 100.305C234.291 100.586 234.436 100.94 234.436 101.366C234.436 101.803 234.296 102.162 234.015 102.442Z" fill="white"/>
<path fill-rule="evenodd" clip-rule="evenodd" d="M34.137 73.5664C51.3264 73.5664 65.2611 59.6316 65.2611 42.4422C65.2611 25.2528 51.3264 11.318 34.137 11.318C16.9476 11.318 3.0128 25.2528 3.0128 42.4422C3.0128 59.6316 16.9476 73.5664 34.137 73.5664ZM34.137 76.254C52.8107 76.254 67.9488 61.116 67.9488 42.4422C67.9488 23.7684 52.8107 8.63037 34.137 8.63037C15.4632 8.63037 0.325134 23.7684 0.325134 42.4422C0.325134 61.116 15.4632 76.254 34.137 76.254Z" fill="url(#paint0_linear)"/>
<path fill-rule="evenodd" clip-rule="evenodd" d="M19.4955 50.4965C23.9444 67.1001 41.011 76.9535 57.6146 72.5046C74.2183 68.0556 84.0717 50.9891 79.6228 34.3854C75.1738 17.7817 58.1073 7.92834 41.5036 12.3773C24.8999 16.8262 15.0465 33.8928 19.4955 50.4965ZM16.8994 51.1921C21.7325 69.2295 40.2728 79.9338 58.3103 75.1006C76.3477 70.2675 87.052 51.7272 82.2188 33.6898C77.3857 15.6523 58.8454 4.94807 40.808 9.7812C22.7705 14.6143 12.0663 33.1546 16.8994 51.1921Z" fill="url(#paint1_linear)"/>
<rect x="38.5693" y="31.8544" width="5.89895" height="21.1731" fill="white"/>
<rect x="52.1053" y="39.4914" width="5.89895" height="21.1731" transform="rotate(90 52.1053 39.4914)" fill="white"/>
<path d="M277.584 45.3904C278.17 45.3904 278.731 45.5375 279.27 45.8319C279.808 46.1232 280.23 46.5424 280.536 47.0895C280.845 47.6366 281 48.2089 281 48.8065C281 49.4011 280.848 49.969 280.545 50.5101C280.245 51.0483 279.824 51.469 279.283 51.7722C278.745 52.0725 278.178 52.2227 277.584 52.2227C276.989 52.2227 276.421 52.0725 275.88 51.7722C275.342 51.469 274.921 51.0483 274.618 50.5101C274.318 49.969 274.168 49.4011 274.168 48.8065C274.168 48.2089 274.321 47.6366 274.627 47.0895C274.936 46.5424 275.36 46.1232 275.898 45.8319C276.436 45.5375 276.998 45.3904 277.584 45.3904ZM277.588 46.0593C277.119 46.0593 276.668 46.1768 276.237 46.4116C275.806 46.6465 275.465 46.984 275.216 47.424C274.969 47.864 274.846 48.3249 274.846 48.8065C274.846 49.2852 274.966 49.7416 275.207 50.1756C275.451 50.6097 275.79 50.9487 276.224 51.1925C276.658 51.4363 277.113 51.5582 277.588 51.5582C278.067 51.5582 278.522 51.4363 278.953 51.1925C279.387 50.9487 279.726 50.6097 279.97 50.1756C280.214 49.7416 280.336 49.2852 280.336 48.8065C280.336 48.3249 280.211 47.864 279.961 47.424C279.714 46.984 279.374 46.6465 278.94 46.4116C278.509 46.1768 278.058 46.0593 277.588 46.0593ZM276.041 50.635V47.0092H276.777C277.466 47.0092 277.853 47.0122 277.936 47.0182C278.18 47.039 278.369 47.088 278.503 47.1653C278.639 47.2397 278.752 47.3556 278.841 47.5132C278.934 47.6678 278.98 47.8402 278.98 48.0305C278.98 48.2922 278.894 48.5166 278.721 48.7039C278.552 48.8883 278.312 49.0027 278.003 49.0473C278.113 49.089 278.198 49.135 278.257 49.1856C278.317 49.2332 278.398 49.3253 278.503 49.4621C278.529 49.4978 278.619 49.6449 278.77 49.9036L279.198 50.635H278.288L277.985 50.0463C277.78 49.6509 277.611 49.4026 277.477 49.3015C277.343 49.1975 277.174 49.1454 276.968 49.1454H276.777V50.635H276.041ZM276.777 48.5746H277.075C277.501 48.5746 277.764 48.5582 277.865 48.5255C277.969 48.4928 278.051 48.4363 278.11 48.3561C278.17 48.2728 278.199 48.1792 278.199 48.0751C278.199 47.974 278.17 47.8848 278.11 47.8075C278.054 47.7273 277.972 47.6708 277.865 47.6381C277.758 47.6024 277.495 47.5845 277.075 47.5845H276.777V48.5746Z" fill="white"/>
<defs>
<linearGradient id="paint0_linear" x1="19.1677" y1="10.1032" x2="47.3941" y2="28.954" gradientUnits="userSpaceOnUse">
<stop stop-color="#2E2D60"/>
<stop offset="0.671875" stop-color="#00CEB5"/>
<stop offset="1" stop-color="#04C6FF"/>
</linearGradient>
<linearGradient id="paint1_linear" x1="76.9219" y1="19.6117" x2="66.0189" y2="51.7553" gradientUnits="userSpaceOnUse">
<stop stop-color="#2E2D60"/>
<stop offset="0.671875" stop-color="#00CEB5"/>
<stop offset="1" stop-color="#04C6FF"/>
</linearGradient>
</defs>
</svg>
